<?xml version="1.0" standalone="no"?>
<!DOCTYPE svg PUBLIC "-//W3C//DTD SVG 20010904//EN"
 "http://www.w3.org/TR/2001/REC-SVG-20010904/DTD/svg10.dtd">
<svg version="1.0" xmlns="http://www.w3.org/2000/svg"
 width="664.000000pt" height="664.000000pt" viewBox="0 0 664.000000 664.000000"
 preserveAspectRatio="xMidYMid meet">
<metadata>
Created by potrace 1.11, written by Peter Selinger 2001-2013
</metadata>
<g transform="translate(0.000000,664.000000) scale(0.100000,-0.100000)"
fill="#000000" stroke="none">
<path d="M836 4201 c-6 -12 2 -957 8 -1001 22 -151 90 -334 152 -405 14 -16
35 -43 47 -58 33 -42 170 -144 246 -181 90 -45 200 -82 307 -105 100 -21 124
-23 309 -25 311 -4 532 51 722 180 188 127 305 304 338 509 5 28 9 53 11 58 1
4 2 14 3 23 2 27 192 203 251 232 112 55 201 30 318 -86 96 -96 115 -123 123
-171 14 -81 20 -104 40 -165 71 -212 218 -369 436 -467 121 -54 218 -82 368
-106 81 -13 417 -6 510 10 235 42 418 131 554 270 78 80 124 149 161 240 61
153 63 174 67 738 l4 515 -2486 1 c-1367 0 -2487 -2 -2489 -6z"/>
</g>
</svg>
